<svg width="64" height="64" viewBox="0 0 64 64" fill="none" xmlns="http://www.w3.org/2000/svg">
<rect width="64" height="64" rx="16" fill="#4318FF"/>
<path d="M22.79 34.78L22.7 34.69C22.31 34.3 22.31 33.67 22.7 33.28L28.79 27.18C29.18 26.79 29.81 26.79 30.2 27.18L33.49 30.47L39.88 23.29C40.26 22.86 40.93 22.85 41.33 23.25C41.7 23.63 41.72 24.23 41.37 24.62L34.2 32.69C33.82 33.12 33.16 33.14 32.75 32.73L29.5 29.48L24.2 34.78C23.82 35.17 23.18 35.17 22.79 34.78ZM24.2 40.78L29.5 35.48L32.75 38.73C33.16 39.14 33.82 39.12 34.2 38.69L41.37 30.62C41.72 30.23 41.7 29.63 41.33 29.25C40.93 28.85 40.26 28.86 39.88 29.29L33.49 36.47L30.2 33.18C29.81 32.79 29.18 32.79 28.79 33.18L22.7 39.28C22.31 39.67 22.31 40.3 22.7 40.69L22.79 40.78C23.18 41.17 23.82 41.17 24.2 40.78Z" fill="white"/>
</svg>
