<svg width="65" height="64" viewBox="0 0 65 64" fill="none" xmlns="http://www.w3.org/2000/svg">
<rect x="0.333313" width="64" height="64" rx="16" fill="#4318FF"/>
<path d="M42.3233 28C42.3233 27.28 41.9533 26.65 41.3833 26.3L32.3333 21L23.2833 26.3C22.7133 26.65 22.3333 27.28 22.3333 28V38C22.3333 39.1 23.2333 40 24.3333 40H40.3333C41.4333 40 42.3333 39.1 42.3333 38L42.3233 28ZM40.3233 28V28.01L32.3333 33L24.3333 28L32.3333 23.32L40.3233 28ZM24.3333 38V30.34L32.3333 35.36L40.3233 30.37L40.3333 38H24.3333Z" fill="white"/>
</svg>
