<svg width="49" height="48" viewBox="0 0 49 48" fill="none" xmlns="http://www.w3.org/2000/svg">
<circle cx="24.3333" cy="24" r="23" stroke="#4318FF" stroke-width="2"/>
<path d="M25.0213 31.192C24.3706 31.192 23.752 31.0747 23.1653 30.84C22.5893 30.5947 22.0933 30.2533 21.6773 29.816C21.272 29.368 20.9946 28.84 20.8453 28.232L22.7493 27.56C22.9413 28.104 23.2346 28.52 23.6293 28.808C24.024 29.0853 24.488 29.224 25.0213 29.224C25.448 29.224 25.816 29.144 26.1253 28.984C26.4453 28.824 26.696 28.5947 26.8773 28.296C27.0586 27.9867 27.1493 27.624 27.1493 27.208C27.1493 26.792 27.0586 26.44 26.8773 26.152C26.7066 25.8533 26.4613 25.624 26.1413 25.464C25.8213 25.304 25.4426 25.224 25.0053 25.224C24.8026 25.224 24.5893 25.2453 24.3653 25.288C24.152 25.3307 23.96 25.3947 23.7893 25.48L23.2933 24.44L26.3813 20.92H21.5173V19.08H28.8293V20.792L25.7253 24.424L25.7573 23.608C26.472 23.6187 27.096 23.7733 27.6293 24.072C28.1626 24.3707 28.5786 24.7813 28.8773 25.304C29.176 25.8267 29.3253 26.44 29.3253 27.144C29.3253 27.912 29.1386 28.6053 28.7653 29.224C28.392 29.832 27.88 30.312 27.2293 30.664C26.5786 31.016 25.8426 31.192 25.0213 31.192Z" fill="#4318FF"/>
</svg>
