<svg width="20" height="20" viewBox="0 0 20 20" fill="none" xmlns="http://www.w3.org/2000/svg">
<g clip-path="url(#clip0_4606_44)">
<path d="M4.9231 13.3187H15.033V17.7143H4.9231V13.3187Z" fill="#4318FF"/>
<path d="M15.3846 14.2418C15.3846 12.7962 14.815 11.4098 13.801 10.3877C12.7871 9.36546 11.4119 8.79121 9.978 8.79121C8.54407 8.79121 7.16891 9.36546 6.15497 10.3877C5.14104 11.4098 4.57141 12.7962 4.57141 14.2418H15.3846Z" fill="#4318FF"/>
<path fill-rule="evenodd" clip-rule="evenodd" d="M10 15.6044C13.0952 15.6044 15.6044 13.0952 15.6044 10C15.6044 6.90479 13.0952 4.3956 10 4.3956C6.90479 4.3956 4.3956 6.90479 4.3956 10C4.3956 13.0952 6.90479 15.6044 10 15.6044ZM10 20C15.5229 20 20 15.5229 20 10C20 4.47714 15.5229 0 10 0C4.47714 0 0 4.47714 0 10C0 15.5229 4.47714 20 10 20Z" fill="#4318FF"/>
</g>
<defs>
<clipPath id="clip0_4606_44">
<rect width="20" height="20" fill="white"/>
</clipPath>
</defs>
</svg>
