<svg width="49" height="48" viewBox="0 0 49 48" fill="none" xmlns="http://www.w3.org/2000/svg">
<circle cx="24.6667" cy="24" r="23" stroke="#4318FF" stroke-width="2"/>
<path d="M21.4027 31V29.352L24.6347 25.976C25.2747 25.304 25.7653 24.7707 26.1067 24.376C26.4587 23.9707 26.704 23.624 26.8427 23.336C26.9813 23.048 27.0507 22.7547 27.0507 22.456C27.0507 21.9547 26.8907 21.56 26.5707 21.272C26.2613 20.984 25.8613 20.84 25.3707 20.84C24.8587 20.84 24.416 20.9893 24.0427 21.288C23.6693 21.576 23.3973 22.0027 23.2267 22.568L21.3227 21.976C21.4507 21.3467 21.712 20.8027 22.1067 20.344C22.5013 19.8747 22.9813 19.5173 23.5467 19.272C24.1227 19.016 24.7307 18.888 25.3707 18.888C26.1387 18.888 26.8107 19.0267 27.3867 19.304C27.9733 19.5813 28.4267 19.9707 28.7467 20.472C29.0773 20.9733 29.2427 21.56 29.2427 22.232C29.2427 22.6587 29.1627 23.08 29.0027 23.496C28.8427 23.912 28.6027 24.3387 28.2827 24.776C27.9627 25.2027 27.5467 25.6827 27.0347 26.216L24.2347 29.16H29.4027V31H21.4027Z" fill="#4318FF"/>
</svg>
