<svg width="65" height="64" viewBox="0 0 65 64" fill="none" xmlns="http://www.w3.org/2000/svg">
<rect x="0.666641" width="64" height="64" rx="16" fill="#4318FF"/>
<path d="M36.3766 32.71C37.357 31.9387 38.0726 30.8809 38.4239 29.6839C38.7751 28.487 38.7446 27.2103 38.3364 26.0315C37.9283 24.8527 37.1629 23.8304 36.1467 23.1069C35.1305 22.3833 33.9141 21.9945 32.6666 21.9945C31.4192 21.9945 30.2028 22.3833 29.1866 23.1069C28.1704 23.8304 27.405 24.8527 26.9969 26.0315C26.5887 27.2103 26.5582 28.487 26.9094 29.6839C27.2606 30.8809 27.9762 31.9387 28.9566 32.71C27.2767 33.383 25.8109 34.4994 24.7155 35.9399C23.6201 37.3805 22.9362 39.0913 22.7366 40.89C22.7222 41.0213 22.7338 41.1542 22.7707 41.2811C22.8076 41.4079 22.8691 41.5263 22.9517 41.6293C23.1187 41.8375 23.3614 41.9708 23.6266 42C23.8919 42.0292 24.1578 41.9518 24.366 41.7849C24.5741 41.618 24.7075 41.3752 24.7366 41.11C24.9562 39.1552 25.8883 37.3498 27.3549 36.0388C28.8214 34.7278 30.7195 34.003 32.6866 34.003C34.6537 34.003 36.5519 34.7278 38.0184 36.0388C39.485 37.3498 40.4171 39.1552 40.6366 41.11C40.6638 41.3557 40.7811 41.5827 40.9657 41.747C41.1504 41.9114 41.3894 42.0015 41.6366 42H41.7466C42.0088 41.9698 42.2484 41.8373 42.4132 41.6313C42.578 41.4252 42.6548 41.1624 42.6266 40.9C42.4261 39.0962 41.7385 37.381 40.6375 35.9382C39.5365 34.4954 38.0636 33.3795 36.3766 32.71ZM32.6666 32C31.8755 32 31.1022 31.7654 30.4444 31.3259C29.7866 30.8864 29.2739 30.2616 28.9711 29.5307C28.6684 28.7998 28.5892 27.9956 28.7435 27.2196C28.8978 26.4437 29.2788 25.731 29.8382 25.1716C30.3976 24.6122 31.1104 24.2312 31.8863 24.0769C32.6622 23.9225 33.4665 24.0017 34.1974 24.3045C34.9283 24.6072 35.553 25.1199 35.9925 25.7777C36.432 26.4355 36.6666 27.2089 36.6666 28C36.6666 29.0609 36.2452 30.0783 35.4951 30.8284C34.7449 31.5786 33.7275 32 32.6666 32Z" fill="white"/>
</svg>
